<svg xmlns="http://www.w3.org/2000/svg" width="300" height="220" viewBox="0 0 300 220">
  <defs>
    <linearGradient id="g" x1="0%" y1="0%" x2="100%" y2="100%" gradientTransform="rotate(30)">
      <stop offset="0%" style="stop-color:#F5E6C8;stop-opacity:1"/>
      <stop offset="100%" style="stop-color:#D4A853;stop-opacity:1"/>
    </linearGradient>
  </defs>
  <rect width="300" height="220" fill="url(#g)" rx="8"/>
  <path d="M90,130 Q90,180 150,180 Q210,180 210,130 Z" fill="#FFF8E7" opacity="0.9"/>
  <path d="M82,130 Q150,145 218,130 Q218,125 150,138 Q82,125 82,130" fill="#E8C36A" opacity="0.7"/>
  <path d="M105,125 Q110,105 120,110 Q130,100 140,110 Q150,95 160,108 Q170,100 180,112 Q190,102 195,115" fill="#FFF" opacity="0.8"/>
  <path d="M110,118 Q118,108 128,115 Q138,105 148,114 Q158,102 168,112 Q178,104 188,115" fill="#FFF" opacity="0.5"/>
  <path d="M130,105 Q135,90 145,95 Q140,80 150,85" fill="#FFF" opacity="0.25"/>
  <path d="M160,105 Q165,88 175,93 Q170,78 180,83" fill="#FFF" opacity="0.2"/>
  <text x="150" y="195" font-family="Inter,Segoe UI,system-ui,sans-serif" font-size="16" fill="#5C3D1A" text-anchor="middle" font-weight="700" dominant-baseline="central">Rice & Dal</text>
  <text x="150" y="210" font-family="Inter,Segoe UI,system-ui,sans-serif" font-size="11" fill="#8B6914" text-anchor="middle" font-weight="500" dominant-baseline="central">চাউল ও ডাল</text>
</svg>